<svg width="166" height="28" viewBox="0 0 166 28" fill="none" xmlns="http://www.w3.org/2000/svg">
<path fill-rule="evenodd" clip-rule="evenodd" d="M25.9968 6.98327L24.2192 4.81982H0V5.48408C0 7.02184 0.0928984 8.61411 0.932983 9.89425C1.48486 10.7352 2.2965 11.6173 3.43367 12.2826C3.98938 12.6077 4.35255 13.2054 4.44204 13.8497C4.7177 15.8342 6.16551 18.3892 10.4362 18.5187C11.344 18.5462 12.1799 19.0959 12.661 19.8771C13.5671 21.3488 15.2604 23.0337 17.8586 23.1801H24.9531C25.7637 23.1801 26.4209 22.5136 26.4209 21.6914V13.5037H21.5281L19.571 15.9849H22.2621C22.8025 15.9849 23.2406 16.4292 23.2406 16.9773V20.4509C23.2406 20.4509 20.0971 21.2307 18.3479 20.4509C17.7545 20.1864 17.1033 19.6451 16.622 19.1945C16.3344 18.9252 16.5278 18.466 16.9193 18.466C17.2978 18.466 17.5083 18.0219 17.2718 17.7221L16.3422 16.5436C16.0636 16.1904 15.6419 15.9849 15.196 15.9849H10.9595C10.0512 15.9849 9.18004 15.6189 8.53774 14.9675L7.92975 14.3509C7.62152 14.0382 7.83982 13.5037 8.27572 13.5037H12.4105C12.8253 13.5037 13.0519 13.013 12.7863 12.6898L11.5653 11.2038C11.2109 10.7725 10.6931 10.5136 10.14 10.4912L6.12949 10.3285C5.33871 10.2964 4.5942 9.94184 4.06477 9.34523L2.69102 7.79717H25.6209C26.0357 7.79717 26.2624 7.30647 25.9968 6.98327Z" fill="#4285F4"/>
<path d="M30.899 1.2689H45.3348V6.1696H40.5761V27.3882H35.5333V6.1696H30.899V1.2689Z" fill="white"/>
<path d="M47.0749 8.06951H51.2298V10.5021C51.6796 9.54327 52.2774 8.81527 53.0232 8.3181C53.7689 7.82093 54.5857 7.57234 55.4735 7.57234C56.1009 7.57234 56.7579 7.73806 57.4445 8.06951L55.9352 12.2422C55.367 11.9581 54.8994 11.8161 54.5325 11.8161C53.7867 11.8161 53.1534 12.2777 52.6325 13.201C52.1235 14.1244 51.869 15.9355 51.869 18.6344L51.8868 19.5755V27.3882H47.0749V8.06951Z" fill="white"/>
<path d="M61.7592 0.114746C62.6115 0.114746 63.3395 0.422519 63.9432 1.03807C64.5588 1.65361 64.8666 2.39937 64.8666 3.27535C64.8666 4.13948 64.5647 4.87932 63.961 5.49487C63.3573 6.09858 62.6352 6.40043 61.7947 6.40043C60.9306 6.40043 60.1908 6.09266 59.5752 5.47711C58.9715 4.84973 58.6696 4.09213 58.6696 3.20432C58.6696 2.35202 58.9715 1.62402 59.5752 1.02031C60.1789 0.416601 60.9069 0.114746 61.7592 0.114746ZM59.3266 8.06951H64.1918V27.3882H59.3266V8.06951Z" fill="white"/>
<path d="M73.4073 0.611919V10.2003C74.2832 9.32428 75.2302 8.6673 76.2483 8.22932C77.2663 7.79133 78.3553 7.57234 79.5154 7.57234C82.0368 7.57234 84.1793 8.52525 85.9431 10.4311C87.7069 12.3369 88.5888 14.7813 88.5888 17.7644C88.5888 20.6409 87.6773 23.0498 85.8543 24.9911C84.0314 26.9207 81.871 27.8854 79.3733 27.8854C78.2606 27.8854 77.2248 27.6901 76.266 27.2994C75.3072 26.897 74.3543 26.2459 73.4073 25.3463V27.3882H68.5953V0.611919H73.4073ZM78.5033 12.0469C76.9763 12.0469 75.7097 12.5677 74.7035 13.6094C73.6973 14.6511 73.1942 16.0124 73.1942 17.6934C73.1942 19.4098 73.6973 20.8007 74.7035 21.8661C75.7097 22.9196 76.9763 23.4464 78.5033 23.4464C79.983 23.4464 81.2259 22.9078 82.2321 21.8305C83.2501 20.7533 83.7591 19.3802 83.7591 17.7111C83.7591 16.0539 83.2619 14.6985 82.2676 13.6449C81.2733 12.5796 80.0185 12.0469 78.5033 12.0469Z" fill="white"/>
<path d="M101.675 7.57234C103.498 7.57234 105.209 8.02808 106.807 8.93956C108.417 9.85105 109.671 11.0881 110.571 12.6506C111.471 14.2131 111.92 15.9 111.92 17.7111C111.92 19.5341 111.465 21.2387 110.553 22.8249C109.654 24.4111 108.422 25.654 106.86 26.5537C105.297 27.4415 103.575 27.8854 101.693 27.8854C98.9229 27.8854 96.5554 26.9029 94.5904 24.9379C92.6372 22.961 91.6606 20.5639 91.6606 17.7466C91.6606 14.7281 92.7674 12.2126 94.981 10.2003C96.9224 8.44831 99.1537 7.57234 101.675 7.57234ZM101.746 12.1357C100.243 12.1357 98.988 12.6624 97.9818 13.716C96.9875 14.7577 96.4903 16.0953 96.4903 17.7289C96.4903 19.4098 96.9816 20.7711 97.9641 21.8128C98.9584 22.8545 100.213 23.3753 101.728 23.3753C103.244 23.3753 104.504 22.8486 105.51 21.795C106.517 20.7415 107.02 19.3861 107.02 17.7289C107.02 16.0716 106.523 14.7281 105.528 13.6982C104.546 12.6565 103.285 12.1357 101.746 12.1357Z" fill="white"/>
<rect x="116.398" y="11.3101" width="49.6014" height="12.4825" rx="6.24124" fill="#4285F4"/>
<path d="M122.007 13.6912V16.4315C122.257 16.1811 122.528 15.9933 122.819 15.8682C123.11 15.743 123.421 15.6804 123.753 15.6804C124.473 15.6804 125.086 15.9527 125.59 16.4974C126.094 17.0421 126.346 17.7407 126.346 18.5932C126.346 19.4153 126.085 20.1038 125.564 20.6586C125.043 21.2101 124.426 21.4858 123.712 21.4858C123.394 21.4858 123.098 21.43 122.824 21.3183C122.55 21.2033 122.278 21.0172 122.007 20.7601V21.3437H120.632V13.6912H122.007ZM123.463 16.9592C123.027 16.9592 122.665 17.1081 122.377 17.4058C122.09 17.7035 121.946 18.0925 121.946 18.5729C121.946 19.0635 122.09 19.461 122.377 19.7655C122.665 20.0666 123.027 20.2171 123.463 20.2171C123.886 20.2171 124.241 20.0632 124.529 19.7553C124.82 19.4475 124.965 19.055 124.965 18.578C124.965 18.1044 124.823 17.717 124.539 17.4159C124.255 17.1115 123.896 16.9592 123.463 16.9592Z" fill="white"/>
<path d="M127.488 15.8225H128.888V18.4816C128.888 18.9992 128.924 19.3595 128.995 19.5625C129.066 19.7621 129.179 19.9177 129.335 20.0294C129.494 20.141 129.688 20.1968 129.918 20.1968C130.148 20.1968 130.343 20.1427 130.502 20.0344C130.664 19.9228 130.784 19.7604 130.862 19.5473C130.92 19.3883 130.948 19.0483 130.948 18.5273V15.8225H132.339V18.1619C132.339 19.1261 132.263 19.7858 132.11 20.141C131.924 20.574 131.65 20.9073 131.288 21.1407C130.926 21.3707 130.466 21.4858 129.908 21.4858C129.303 21.4858 128.812 21.3505 128.436 21.0798C128.064 20.8092 127.802 20.4319 127.65 19.9482C127.542 19.6132 127.488 19.0043 127.488 18.1213V15.8225Z" fill="white"/>
<path d="M137.114 16.5938L136.256 17.4515C135.908 17.1064 135.592 16.9338 135.307 16.9338C135.152 16.9338 135.03 16.9677 134.942 17.0353C134.854 17.0996 134.81 17.1808 134.81 17.2789C134.81 17.3533 134.837 17.4227 134.891 17.487C134.949 17.5479 135.088 17.6324 135.307 17.7407L135.815 17.9944C136.349 18.2583 136.717 18.5273 136.916 18.8013C137.116 19.0753 137.216 19.3967 137.216 19.7655C137.216 20.256 137.035 20.6654 136.673 20.9935C136.314 21.3217 135.832 21.4858 135.226 21.4858C134.421 21.4858 133.778 21.1711 133.298 20.5419L134.15 19.6132C134.313 19.8027 134.502 19.9566 134.719 20.075C134.939 20.1901 135.133 20.2476 135.302 20.2476C135.485 20.2476 135.632 20.2036 135.744 20.1156C135.856 20.0277 135.911 19.9262 135.911 19.8111C135.911 19.598 135.71 19.39 135.307 19.187L134.841 18.9535C133.947 18.5036 133.501 17.9403 133.501 17.2637C133.501 16.8273 133.668 16.4551 134.003 16.1473C134.342 15.836 134.773 15.6804 135.297 15.6804C135.656 15.6804 135.993 15.7599 136.307 15.9189C136.625 16.0745 136.894 16.2995 137.114 16.5938Z" fill="white"/>
<path d="M138.855 13.5491C139.098 13.5491 139.306 13.637 139.479 13.813C139.655 13.9889 139.743 14.202 139.743 14.4524C139.743 14.6993 139.656 14.9108 139.484 15.0867C139.311 15.2592 139.105 15.3455 138.865 15.3455C138.618 15.3455 138.406 15.2575 138.23 15.0816C138.058 14.9023 137.972 14.6858 137.972 14.4321C137.972 14.1885 138.058 13.9804 138.23 13.8079C138.403 13.6353 138.611 13.5491 138.855 13.5491ZM138.159 15.8225H139.55V21.3437H138.159V15.8225Z" fill="white"/>
<path d="M140.808 15.8225H142.189V16.3858C142.503 16.1219 142.787 15.9392 143.041 15.8377C143.298 15.7328 143.561 15.6804 143.828 15.6804C144.376 15.6804 144.841 15.8716 145.223 16.2538C145.545 16.5786 145.705 17.059 145.705 17.695V21.3437H144.335V18.9231C144.335 18.2634 144.305 17.8253 144.244 17.6088C144.186 17.3922 144.083 17.2282 143.934 17.1165C143.789 17.0015 143.608 16.944 143.391 16.944C143.111 16.944 142.869 17.0387 142.666 17.2282C142.466 17.4142 142.327 17.673 142.25 18.0046C142.209 18.1771 142.189 18.551 142.189 19.1261V21.3437H140.808V15.8225Z" fill="white"/>
<path d="M152.581 18.984H148.131C148.195 19.3764 148.366 19.6894 148.644 19.9228C148.924 20.1528 149.281 20.2679 149.714 20.2679C150.232 20.2679 150.677 20.0869 151.049 19.7249L152.216 20.2729C151.925 20.6857 151.577 20.9918 151.171 21.1914C150.765 21.3877 150.283 21.4858 149.724 21.4858C148.858 21.4858 148.153 21.2134 147.608 20.6688C147.064 20.1207 146.791 19.4356 146.791 18.6135C146.791 17.7712 147.062 17.0725 147.603 16.5177C148.148 15.9595 148.83 15.6804 149.648 15.6804C150.518 15.6804 151.225 15.9595 151.77 16.5177C152.314 17.0725 152.587 17.8067 152.587 18.7201L152.581 18.984ZM151.191 17.8929C151.1 17.5851 150.919 17.3347 150.648 17.1419C150.381 16.9491 150.07 16.8526 149.714 16.8526C149.329 16.8526 148.99 16.9609 148.699 17.1774C148.517 17.3127 148.348 17.5513 148.192 17.8929H151.191Z" fill="white"/>
<path d="M157.088 16.5938L156.23 17.4515C155.882 17.1064 155.565 16.9338 155.281 16.9338C155.126 16.9338 155.004 16.9677 154.916 17.0353C154.828 17.0996 154.784 17.1808 154.784 17.2789C154.784 17.3533 154.811 17.4227 154.865 17.487C154.923 17.5479 155.061 17.6324 155.281 17.7407L155.789 17.9944C156.323 18.2583 156.69 18.5273 156.89 18.8013C157.089 19.0753 157.189 19.3967 157.189 19.7655C157.189 20.256 157.008 20.6654 156.646 20.9935C156.288 21.3217 155.806 21.4858 155.2 21.4858C154.395 21.4858 153.752 21.1711 153.272 20.5419L154.124 19.6132C154.287 19.8027 154.476 19.9566 154.693 20.075C154.912 20.1901 155.107 20.2476 155.276 20.2476C155.459 20.2476 155.606 20.2036 155.718 20.1156C155.829 20.0277 155.885 19.9262 155.885 19.8111C155.885 19.598 155.684 19.39 155.281 19.187L154.814 18.9535C153.921 18.5036 153.475 17.9403 153.475 17.2637C153.475 16.8273 153.642 16.4551 153.977 16.1473C154.315 15.836 154.747 15.6804 155.271 15.6804C155.63 15.6804 155.966 15.7599 156.281 15.9189C156.599 16.0745 156.868 16.2995 157.088 16.5938Z" fill="white"/>
<path d="M161.665 16.5938L160.807 17.4515C160.459 17.1064 160.143 16.9338 159.858 16.9338C159.703 16.9338 159.581 16.9677 159.493 17.0353C159.405 17.0996 159.361 17.1808 159.361 17.2789C159.361 17.3533 159.388 17.4227 159.442 17.487C159.5 17.5479 159.639 17.6324 159.858 17.7407L160.366 17.9944C160.9 18.2583 161.268 18.5273 161.467 18.8013C161.667 19.0753 161.767 19.3967 161.767 19.7655C161.767 20.256 161.586 20.6654 161.224 20.9935C160.865 21.3217 160.383 21.4858 159.777 21.4858C158.972 21.4858 158.329 21.1711 157.849 20.5419L158.701 19.6132C158.864 19.8027 159.053 19.9566 159.27 20.075C159.49 20.1901 159.684 20.2476 159.853 20.2476C160.036 20.2476 160.183 20.2036 160.295 20.1156C160.407 20.0277 160.462 19.9262 160.462 19.8111C160.462 19.598 160.261 19.39 159.858 19.187L159.392 18.9535C158.499 18.5036 158.052 17.9403 158.052 17.2637C158.052 16.8273 158.219 16.4551 158.554 16.1473C158.893 15.836 159.324 15.6804 159.848 15.6804C160.207 15.6804 160.544 15.7599 160.858 15.9189C161.176 16.0745 161.445 16.2995 161.665 16.5938Z" fill="white"/>
</svg>
